<svg width="687" height="984" viewBox="0 0 687 984" fill="none" xmlns="http://www.w3.org/2000/svg">
<g clip-path="url(#clip0_81_470)">
<path d="M970.794 600.599L970.687 600.661C959.321 606.971 945.113 611.297 931.706 612.521C921.045 613.498 906.129 612.95 895.598 604.8C884.263 595.153 883.139 578.965 882.054 563.309C880.855 546.001 879.72 529.654 865.971 521.491C799.368 501.981 735.413 553.931 701.558 614.079L701.485 614.171C673.506 641.751 650.45 660.81 631.008 672.438C613.014 683.192 598.434 687.371 586.437 685.201C573.666 682.891 563.973 673.526 555.933 655.733C548.772 639.891 543.747 619.188 538.427 597.271C530.88 566.199 523.082 534.069 508.049 508.512C490.901 479.364 467.139 464.549 435.408 463.222C374.89 455.223 331.421 501.63 293.064 542.579C290.737 545.065 288.427 547.531 286.133 549.963L286.088 550.004C266.522 565.902 242.383 580.202 216.272 591.365C191.199 602.083 164.32 609.941 138.542 614.08L138.432 614.099L138.337 614.063C117.974 606.144 98.2749 593.838 82.8794 579.41C65.6214 563.243 54.2193 544.951 49.9036 526.51L50.6585 526.279C60.6994 569.176 104.288 599.979 138.603 613.355C192.019 604.755 246.958 580.893 285.597 549.503C287.883 547.076 290.186 544.619 292.506 542.141C331.005 501.04 374.645 454.453 435.557 462.511C467.517 463.846 491.461 478.767 508.728 508.119C523.806 533.755 531.62 565.931 539.173 597.045C549.918 641.306 559.2 679.529 586.661 684.498C598.453 686.631 612.853 682.5 630.643 671.849C650.019 660.264 673.004 641.262 700.911 613.754C718.676 582.211 743.138 555.319 769.811 538.031C784.853 528.278 800.335 521.758 815.817 518.652C832.814 515.241 849.801 515.97 866.317 520.812L866.395 520.848C880.464 529.167 881.661 546.461 882.823 563.18C883.901 578.705 885.01 594.761 896.139 604.23C906.475 612.231 921.193 612.764 931.718 611.8C944.966 610.587 958.997 606.323 970.239 600.105C980.706 581.676 985.716 560.645 990.558 540.306C993.552 527.742 996.643 514.75 1000.99 502.547L1001.72 502.704C997.383 514.87 994.293 527.842 991.308 540.384C986.443 560.813 981.411 581.942 970.852 600.49L970.792 600.595L970.794 600.599Z" fill="#E1E1E1"/>
<path d="M952.123 556.038C937.421 564.557 918.471 569.366 903.379 568.188C896.027 567.611 889.94 565.736 885.291 562.611C873.536 554.703 871.388 539.143 869.316 524.099C866.984 507.151 864.778 491.142 849.7 486.11C787.965 465.501 739.003 524.999 699.252 585.915C671.181 628.932 648.528 655.117 629.67 666.044C622.777 670.039 616.398 671.993 610.438 671.989C584.771 671.975 569.76 635.482 552.382 593.222C540.453 564.216 526.933 531.334 508.004 506.248C486.319 477.503 460.856 463.423 430.167 463.193C376.779 462.797 343.379 500.586 311.076 537.13C305.437 543.509 299.606 550.109 293.819 556.312C274.031 577.525 245.571 592.808 222.983 603.757C201.612 614.117 178.629 622.179 156.522 627.08L156.421 627.104L156.326 627.078C140.447 622.672 124.671 615.533 110.703 606.43C95.7417 596.68 83.2889 584.877 74.6866 572.307C70.2014 565.754 66.7287 558.841 64.367 551.757L65.1063 551.47C67.4503 558.493 70.8989 565.355 75.3537 571.865C91.9959 596.182 123.094 617.056 156.525 626.354C178.534 621.469 201.413 613.437 222.689 603.122C245.202 592.211 273.57 576.976 293.26 555.871C299.04 549.677 304.865 543.085 310.503 536.707C342.937 500.011 376.476 462.066 430.256 462.467C461.186 462.697 486.828 476.866 508.648 505.784C527.624 530.933 541.16 563.852 553.104 592.894C570.392 634.94 585.326 671.251 610.521 671.261C621.133 671.269 633.008 664.926 646.818 651.88C661.769 637.754 678.708 616.068 698.604 585.58C716.105 558.766 737.423 528.496 762.886 507.298C776.489 495.973 790.223 488.256 803.707 484.364C819.066 479.929 834.65 480.283 850.027 485.418C865.487 490.575 867.716 506.772 870.078 523.919C872.13 538.829 874.259 554.249 885.78 562C890.328 565.059 896.295 566.897 903.52 567.462C919.984 568.751 941.094 562.831 956.101 552.721C960.467 543.938 963.797 534.08 966.278 522.589C968.289 513.374 969.744 503.822 971.151 494.584C972.996 482.48 974.903 469.968 978.075 458.107L978.822 458.208C975.653 470.027 973.753 482.52 971.914 494.605C970.507 503.853 969.048 513.418 967.033 522.655C964.527 534.251 961.161 544.196 956.742 553.064L956.691 553.164L956.596 553.229C955.155 554.205 953.655 555.14 952.11 556.035L952.123 556.038Z" fill="#E1E1E1"/>
<path d="M932.485 512.757C920.388 519.766 905.684 524.184 893.001 524.284C885.884 524.34 879.828 523.042 874.999 520.428C862.883 513.867 859.368 499.281 855.964 485.174C852.129 469.284 848.509 454.27 833.445 450.726C771.749 436.2 729.845 496.647 696.992 557.694C672.139 603.871 651.521 631.212 633.373 641.729C628.385 644.619 623.583 646.238 618.93 646.629C594.058 648.708 576.14 615.293 555.387 576.6C541.145 550.042 525.004 519.942 504.345 497.676C480.677 472.169 454.715 460.88 424.972 463.163C373.41 467.125 344.632 505.528 316.803 542.671C311.831 549.308 306.689 556.169 301.551 562.64C283.678 585.129 256.425 602.119 237.481 612.945C216.27 625.065 195.087 634.194 174.53 640.08L174.442 640.105L174.353 640.091C141.549 634.785 109.514 617.766 90.7375 595.663C85.829 589.884 81.8308 583.607 78.8562 577L79.5736 576.654C82.5219 583.207 86.4939 589.438 91.3632 595.17C110.027 617.137 141.862 634.06 174.469 639.35C194.933 633.482 216.013 624.393 237.134 612.326C256.015 601.541 283.172 584.612 300.947 562.24C306.081 555.782 311.218 548.923 316.188 542.293C344.136 504.99 373.032 466.423 424.994 462.43C454.978 460.128 481.135 471.486 504.951 497.159C525.663 519.485 541.825 549.622 556.085 576.211C576.726 614.702 594.552 647.938 618.949 645.899C629.224 645.039 640.133 638.058 652.297 624.556C665.47 609.935 679.867 587.975 696.311 557.419C710.772 530.544 728.623 500.079 751.323 477.884C763.454 466.026 776.037 457.582 788.741 452.788C803.209 447.329 818.343 446.393 833.714 450.011C849.177 453.651 852.843 468.845 856.723 484.931C860.096 498.904 863.584 513.355 875.449 519.78C880.169 522.335 886.107 523.607 893.092 523.551C909.355 523.425 928.992 516.109 941.993 505.339C945.779 496.455 948.278 486.756 949.626 475.705C950.699 466.938 951.235 457.898 951.757 449.153C952.456 437.416 953.18 425.277 955.197 413.668L955.958 413.705C953.948 425.276 953.224 437.394 952.524 449.111C952.002 457.867 951.466 466.916 950.389 475.706C949.024 486.867 946.498 496.657 942.662 505.631L942.623 505.724L942.542 505.791C939.509 508.314 936.118 510.646 932.491 512.748L932.485 512.757Z" fill="#E1E1E1"/>
<path d="M913.211 470.075C903.694 475.589 892.744 479.382 882.625 480.373C875.743 481.043 869.715 480.327 864.711 478.233C852.236 473.022 847.34 459.407 842.612 446.24C837.277 431.404 832.243 417.392 817.183 415.33C755.527 406.888 720.676 468.287 694.716 529.463C669.681 588.466 648.294 617.638 627.414 621.254C603.338 625.429 582.507 595.092 558.382 559.968C541.827 535.862 523.059 508.539 500.674 489.095C475.026 466.82 448.561 458.324 419.764 463.12C369.987 471.409 345.788 510.462 322.391 548.228C318.128 555.109 313.719 562.224 309.264 568.954C295.352 589.968 273.503 606.923 251.97 622.108C233.592 635.069 213.03 645.775 192.519 653.065L192.437 653.092L192.355 653.089C160.44 651.773 127.653 638.719 106.78 619.024C101.454 614 96.9328 608.354 93.3369 602.247L94.0237 601.849C97.5869 607.899 102.072 613.501 107.356 618.484C128.094 638.056 160.67 651.031 192.393 652.362C212.808 645.104 233.26 634.446 251.548 621.548C273.01 606.408 294.782 589.518 308.619 568.623C313.068 561.902 317.474 554.793 321.734 547.914C345.234 509.982 369.536 470.76 419.715 462.403C448.753 457.568 475.419 466.114 501.232 488.535C523.682 508.032 542.47 535.389 559.045 559.529C583.037 594.463 603.761 624.635 627.357 620.542C637.294 618.821 647.239 611.196 657.762 597.235C669.155 582.116 681.008 559.883 694.003 529.261C705.43 502.327 719.802 471.667 739.74 448.475C750.393 436.085 761.837 426.912 773.756 421.218C787.335 414.729 802.011 412.508 817.381 414.611C832.845 416.73 837.946 430.916 843.349 445.938C848.038 458.978 852.883 472.466 865.092 477.564C869.979 479.605 875.884 480.307 882.634 479.647C898.682 478.081 916.844 469.369 927.858 457.968C931.026 449.038 932.742 439.235 932.951 428.829C933.119 420.46 932.761 411.878 932.417 403.575C931.946 392.254 931.459 380.55 932.297 369.241L933.065 369.209C932.233 380.479 932.719 392.163 933.185 403.467C933.53 411.78 933.888 420.372 933.72 428.761C933.51 439.273 931.773 449.18 928.558 458.206L928.531 458.288L928.466 458.355C924.255 462.734 918.997 466.722 913.215 470.072L913.211 470.075Z" fill="#E1E1E1"/>
<path d="M643.071 592.861C640.71 594.229 638.323 595.234 635.903 595.887C612.626 602.155 588.881 574.902 561.387 543.346C542.519 521.688 521.13 497.147 497.012 480.52C469.384 461.476 442.416 455.774 414.562 463.079C366.527 475.68 346.866 515.42 327.855 553.847C324.341 560.952 320.703 568.301 316.979 575.272C305.716 596.336 286.042 614.639 266.456 631.284C249.701 645.523 230.353 657.551 210.503 666.062L210.439 666.09L210.368 666.095C179.364 668.697 145.822 659.614 122.826 642.392C117.084 638.093 112.037 633.084 107.824 627.505L108.469 627.046C112.65 632.577 117.655 637.545 123.344 641.81C146.19 658.923 179.507 667.954 210.313 665.387C230.057 656.911 249.298 644.946 265.969 630.781C285.484 614.192 305.088 595.955 316.291 575.015C320.016 568.055 323.645 560.711 327.157 553.612C346.255 515.009 366.003 475.092 414.427 462.391C442.518 455.02 469.691 460.76 497.506 479.926C521.689 496.596 543.103 521.173 561.998 542.856C589.339 574.238 612.959 601.344 635.762 595.198C645.369 592.611 654.35 584.342 663.226 569.925C672.839 554.306 682.153 531.798 691.695 501.114C700.089 474.12 710.987 443.263 728.158 419.077C737.332 406.154 747.633 396.254 758.767 389.661C771.448 382.147 785.674 378.635 801.037 379.222C816.501 379.816 823.039 392.998 829.955 406.952C835.956 419.061 842.163 431.583 854.728 435.357C859.775 436.873 865.644 437.006 872.172 435.756C887.978 432.723 904.664 422.622 913.722 410.607C916.303 401.505 917.164 391.869 916.269 381.962C915.55 373.982 914.314 365.843 913.117 357.968C911.461 347.077 909.75 335.821 909.385 324.821L910.156 324.717C910.52 335.676 912.23 346.919 913.878 357.789C915.076 365.673 916.316 373.82 917.035 381.82C917.936 391.834 917.065 401.582 914.439 410.785L914.423 410.855L914.378 410.917C905.205 423.119 888.265 433.388 872.238 436.463C865.576 437.74 859.578 437.601 854.412 436.049C841.575 432.191 835.309 419.547 829.242 407.315C822.411 393.538 815.957 380.519 800.911 379.945C739.289 377.579 711.494 439.934 692.428 501.242C676.244 553.285 660.387 582.827 643.062 592.866L643.071 592.861Z" fill="#E1E1E1"/>
<path d="M648.725 568.461C647.309 569.282 645.865 569.967 644.393 570.513C621.923 578.877 595.263 554.706 564.395 526.717C543.21 507.514 519.202 485.744 493.354 471.941C463.745 456.13 436.272 453.217 409.365 463.035C363.013 479.946 347.865 520.419 333.213 559.561C330.481 566.859 327.658 574.405 324.694 581.589C315.512 603.85 297.299 623.646 280.945 640.457C266.579 655.225 249.489 671.607 228.447 679.078C215.307 683.742 199.632 684.735 183.117 681.941C167.899 679.368 152.602 673.768 138.882 665.755C132.713 662.156 127.145 657.781 122.32 652.759L122.92 652.24C127.703 657.221 133.226 661.557 139.338 665.128C162.426 678.612 197.907 689.179 228.245 678.405C249.108 670.998 266.107 654.698 280.401 640.002C296.696 623.25 314.847 603.525 323.974 581.397C326.934 574.225 329.755 566.685 332.486 559.394C347.2 520.074 362.42 479.418 409.155 462.366C436.295 452.464 463.979 455.385 493.789 471.307C519.711 485.147 543.751 506.944 564.964 526.176C595.661 554.008 622.169 578.044 644.185 569.848C653.456 566.394 661.478 557.487 668.712 542.612C676.548 526.498 683.316 503.714 689.412 472.962C694.773 445.908 702.193 414.857 716.597 389.676C724.297 376.218 733.446 365.596 743.797 358.097C755.588 349.553 769.357 344.756 784.708 343.83C800.172 342.899 808.138 355.072 816.576 367.963C823.892 379.143 831.463 390.704 844.376 393.149C849.567 394.133 855.406 393.7 861.725 391.86C876.814 387.472 894.382 376.924 899.613 363.241C903.126 354.056 901.542 344.297 899.617 335.087C898.028 327.486 895.922 319.775 893.887 312.316C891.035 301.871 888.085 291.071 886.509 280.395L887.273 280.22C888.844 290.857 891.79 301.64 894.638 312.067C896.677 319.534 898.783 327.255 900.379 334.878C902.326 344.185 903.922 354.054 900.34 363.418C895.002 377.37 877.176 388.107 861.879 392.552C855.426 394.428 849.461 394.869 844.146 393.861C830.942 391.359 823.299 379.683 815.907 368.391C807.577 355.668 799.712 343.649 784.675 344.554C723.088 348.264 702.338 411.576 690.171 473.015C679.321 527.801 666.067 558.422 648.734 568.466L648.725 568.461Z" fill="#E1E1E1"/>
<path d="M654.73 544.15C654.12 544.503 653.506 544.829 652.883 545.13C631.221 555.588 601.645 534.501 567.404 510.082C543.906 493.328 517.276 474.335 489.697 463.353C458.107 450.774 430.129 450.65 404.161 462.979C359.436 484.213 348.782 525.485 338.48 565.395C336.557 572.842 334.571 580.537 332.402 587.896C325.759 610.442 309.835 631.575 295.43 649.613C282.807 665.42 265.567 678.058 248.892 690.278L246.53 692.009C235.455 700.138 220.598 703.481 202.372 701.951C183.634 700.379 166.235 694.09 154.934 689.095C148.327 686.173 142.233 682.434 136.813 677.989L137.357 677.422C142.729 681.835 148.775 685.54 155.322 688.437C169.209 694.582 216.802 712.95 246.09 691.458L248.453 689.727C265.082 677.538 282.275 664.938 294.826 649.223C309.183 631.243 325.048 610.184 331.655 587.775C333.82 580.429 335.808 572.737 337.725 565.299C348.077 525.209 358.777 483.749 403.871 462.341C430.059 449.905 458.255 450.019 490.058 462.681C517.713 473.694 544.38 492.711 567.908 509.488C601.959 533.766 631.365 554.739 652.588 544.49C661.527 540.176 668.588 530.623 674.179 515.286C680.234 498.673 684.463 475.613 687.104 444.794C689.427 417.683 693.372 386.435 705.015 360.257C711.239 346.27 719.241 334.918 728.803 326.523C739.703 316.954 753.009 310.865 768.356 308.426C783.813 305.969 793.213 317.134 803.163 328.953C811.793 339.205 820.723 349.808 833.997 350.926C839.314 351.374 845.12 350.371 851.254 347.954C868.386 341.193 882.139 328.296 885.475 315.856C888.149 305.895 885.523 295.843 882.94 288.198C880.49 280.953 877.524 273.646 874.653 266.585C870.597 256.607 866.405 246.285 863.605 235.951L864.355 235.702C867.146 246.001 871.332 256.302 875.379 266.265C878.256 273.337 881.225 280.648 883.681 287.914C886.293 295.648 888.943 305.822 886.224 315.961C883.508 326.088 874.05 336.502 861.494 343.777C858.335 345.608 854.976 347.242 851.479 348.619C845.22 351.088 839.283 352.112 833.839 351.652C820.265 350.511 811.25 339.802 802.531 329.445C792.707 317.775 783.424 306.753 768.394 309.144C706.831 318.932 693.137 383.199 687.86 444.774C682.94 502.195 672.383 533.906 654.713 544.15L654.73 544.15Z" fill="#E1E1E1"/>
<path d="M661.174 517.868C640.094 530.083 607.508 511.718 569.803 490.464C543.571 475.681 513.84 458.918 484.53 451.013C451.003 441.967 423.019 445.86 398.989 462.91C356.605 492.982 349.777 535.198 343.17 576.023C342.206 581.998 341.205 588.176 340.108 594.209C335.939 617.194 322.334 639.591 309.911 658.781C297.899 677.335 280.219 692.559 264.503 705.008C253.296 713.888 238.41 718.784 220.261 719.564C204.679 720.231 187.636 717.774 170.99 712.458C163.92 710.202 157.3 707.1 151.313 703.24L151.796 702.628C157.735 706.456 164.298 709.529 171.308 711.77C200.091 720.962 239.569 723.871 264.049 704.481C279.705 692.076 297.321 676.91 309.266 658.46C321.647 639.334 335.202 617.022 339.351 594.169C340.446 588.143 341.443 581.967 342.411 575.999C345.72 555.556 349.14 534.415 357 514.989C365.832 493.153 379.434 475.938 398.575 462.355C422.832 445.142 451.045 441.208 484.822 450.32C514.217 458.252 543.991 475.03 570.26 489.837C607.947 511.081 640.505 529.427 661.145 517.085C669.675 511.986 675.732 501.977 679.667 486.492C683.932 469.699 685.619 446.853 684.828 416.653C684.118 389.482 684.585 358.04 693.463 330.872C698.204 316.354 705.065 304.279 713.842 294.984C723.844 284.391 736.697 277.014 752.036 273.059C767.479 269.074 778.309 279.235 789.776 289.988C799.723 299.317 810.015 308.964 823.649 308.745C829.074 308.658 834.852 307.092 840.816 304.084C857.001 295.928 869.276 281.637 871.374 268.506C872.71 260.155 871.051 251.265 866.301 241.336C862.994 234.422 859.164 227.505 855.46 220.816C850.2 211.324 844.763 201.506 840.735 191.537L841.462 191.217C845.47 201.152 850.902 210.952 856.153 220.429C859.861 227.126 863.701 234.048 867.012 240.979C871.814 251.029 873.492 260.039 872.135 268.533C871.054 275.286 867.459 282.322 861.734 288.887C856.194 295.238 849.061 300.711 841.118 304.714C835.034 307.782 829.131 309.38 823.57 309.471C809.63 309.695 799.242 299.953 789.194 290.527C777.871 279.912 767.179 269.882 752.154 273.756C690.621 289.622 683.975 354.85 685.592 416.557C686.384 446.827 684.691 469.732 680.411 486.589C676.423 502.297 670.235 512.467 661.5 517.689C661.393 517.751 661.282 517.816 661.174 517.878L661.174 517.868Z" fill="#E1E1E1"/>
<path d="M667.373 495.982C646.963 507.809 612.779 493.395 573.434 476.811C545.31 464.957 513.429 451.519 482.388 446.178C446.829 440.057 417.834 445.521 393.75 462.875C352.135 492.859 350.513 535.884 348.943 577.495C348.658 585.096 348.361 592.955 347.814 600.521C346.189 622.989 335.598 646.202 324.394 667.942C313.408 689.265 299.296 706.116 282.46 718.027C269.772 727.004 254.169 733.373 237.35 736.448C220.77 739.481 203.378 739.26 187.053 735.806C179.495 734.211 172.352 731.74 165.818 728.478L166.24 727.831C172.72 731.068 179.802 733.514 187.302 735.098C220.454 742.111 256.755 735.353 282.044 717.467C298.531 705.804 312.937 688.592 323.713 667.688C334.879 646.02 345.434 622.893 347.051 600.551C347.598 592.995 347.893 585.142 348.181 577.544C349.76 535.752 351.394 492.539 393.339 462.313C417.624 444.812 446.827 439.303 482.62 445.46C513.745 450.818 545.662 464.27 573.824 476.138C614.581 493.317 649.785 508.157 669.435 493.8C677.71 487.757 682.854 476.913 685.164 460.653C687.664 443.04 686.81 419.431 682.549 388.478C678.802 361.25 675.797 329.615 681.908 301.452C685.173 286.406 690.884 273.602 698.876 263.408C707.987 251.791 720.375 243.127 735.708 237.656C751.135 232.15 763.397 241.299 776.376 250.981C787.641 259.389 799.295 268.081 813.298 266.521C818.819 265.905 824.571 263.77 830.377 260.174C845.907 250.561 856.462 235.232 857.273 221.115C857.776 212.345 855.142 203.119 849.664 194.438C845.498 187.841 840.797 181.292 836.246 174.963C829.788 165.974 823.111 156.678 817.87 147.09L818.566 146.707C823.789 156.265 830.455 165.542 836.9 174.518C841.455 180.855 846.16 187.411 850.338 194.027C855.888 202.823 858.555 212.176 858.044 221.08C857.221 235.442 846.508 251.023 830.752 260.772C824.822 264.44 818.958 266.62 813.306 267.247C799.001 268.841 787.234 260.063 775.858 251.573C763.041 242.01 750.932 232.977 735.911 238.333C674.398 260.28 674.803 326.466 683.316 388.316C691.523 447.967 687.248 481.666 669.864 494.362C669.062 494.948 668.234 495.488 667.384 495.98L667.373 495.982Z" fill="#E1E1E1"/>
<path d="M283.933 742.555C260.212 756.3 231.24 762.416 203.106 759.146C195.033 758.206 187.363 756.378 180.318 753.709L180.673 753.035C187.666 755.684 195.271 757.499 203.282 758.43C238.136 762.483 274.28 752.04 299.975 730.491C316.492 716.635 329.692 698.113 338.145 676.919C347.211 654.192 355.495 629.985 354.738 606.94C354.489 599.346 353.961 591.477 353.451 583.869C350.592 541.165 347.638 497.011 388.058 462.312C411.388 442.284 441.099 433.958 478.884 436.866C511.741 439.393 546.287 450.069 576.764 459.482C620.879 473.116 658.978 484.888 677.844 468.474C685.789 461.564 689.978 450.071 690.644 433.349C691.366 415.241 687.966 391.355 680.258 360.331C675.829 342.514 669.794 315.902 668.512 290.573C667.093 262.625 671.681 240.877 682.142 225.93C690.637 213.794 703.189 205.83 719.457 202.259C734.99 198.846 748.539 206.168 761.635 213.253C774.5 220.206 787.802 227.399 802.929 224.343C808.534 223.21 814.249 220.507 819.924 216.307C834.854 205.254 843.755 188.951 843.152 173.76C842.785 164.478 839.275 155.422 833.006 147.572C827.973 141.271 822.385 135.08 816.981 129.089C809.338 120.62 801.437 111.863 794.986 102.669L795.646 102.226C802.074 111.389 809.966 120.131 817.596 128.587C823.006 134.579 828.601 140.781 833.643 147.097C839.999 155.048 843.555 164.234 843.928 173.653C844.539 189.086 835.508 205.641 820.361 216.854C814.584 221.133 808.746 223.892 803.012 225.05C787.603 228.164 774.184 220.908 761.203 213.892C748.221 206.875 734.802 199.619 719.557 202.966C703.513 206.488 691.143 214.331 682.776 226.282C672.415 241.086 667.876 262.68 669.285 290.462C670.569 315.735 676.593 342.308 681.013 360.1C695.869 419.875 695.018 454.475 678.337 468.989C676.939 470.207 675.436 471.274 673.839 472.199C653.492 483.989 617.573 472.892 576.452 460.181C546.014 450.776 511.512 440.116 478.739 437.595C441.195 434.708 411.689 442.961 388.547 462.829C348.437 497.262 351.381 541.231 354.226 583.752C354.734 591.367 355.26 599.242 355.511 606.849C356.276 630.026 347.963 654.321 338.869 677.119C330.363 698.439 317.08 717.075 300.455 731.023C295.331 735.321 289.792 739.18 283.937 742.573L283.933 742.555Z" fill="#E1E1E1"/>
<path d="M292.098 763.901C286.076 767.39 279.766 770.443 273.258 772.996C255.989 779.775 237.283 783.058 219.159 782.485C210.546 782.216 202.358 781.02 194.815 778.937L195.106 778.24C202.588 780.308 210.717 781.492 219.266 781.759C255.365 782.895 292.241 768.6 317.91 743.512C334.218 727.573 346.209 707.737 352.59 686.144C359.262 663.56 365.653 637.244 362.434 613.314C361.411 605.711 360.092 597.862 358.815 590.266C351.475 546.628 343.884 501.506 382.787 462.291C405.168 439.732 435.379 428.599 475.155 428.254C509.746 427.954 546.915 435.846 579.711 442.808C627.185 452.889 668.183 461.598 686.268 443.124C693.885 435.342 697.112 423.208 696.136 406.018C695.078 387.41 689.14 363.249 677.98 332.156C671.574 314.302 662.602 287.579 658.727 261.754C654.452 233.261 657.068 210.592 666.504 194.371C674.165 181.202 686.488 171.942 703.128 166.856C719.013 162.001 733.895 168.309 748.288 174.407C762.435 180.405 777.066 186.607 792.572 182.127C798.246 180.491 803.934 177.215 809.481 172.4C823.658 160.087 831.157 142.441 829.047 126.362C827.776 116.677 823.389 107.792 816.356 100.661C810.409 94.6029 803.881 88.7201 797.57 83.0337C788.798 75.1286 779.722 66.9566 772.112 58.2071L772.731 57.7123C780.319 66.4342 789.376 74.5924 798.135 82.4848C804.454 88.1763 810.991 94.0641 816.947 100.137C824.076 107.364 828.524 116.375 829.809 126.192C831.948 142.511 824.346 160.413 809.963 172.906C804.318 177.808 798.516 181.145 792.715 182.82C776.927 187.377 762.173 181.121 747.901 175.074C733.633 169.024 718.881 162.772 703.284 167.541C686.868 172.558 674.719 181.682 667.17 194.66C657.819 210.731 655.235 233.245 659.489 261.574C663.355 287.344 672.313 314.024 678.711 331.853C700.215 391.753 702.788 427.254 686.806 443.577C668.385 462.392 627.176 453.644 579.459 443.513C546.703 436.558 509.579 428.675 475.074 428.976C435.544 429.319 405.53 440.368 383.327 462.748C344.711 501.677 352.271 546.616 359.581 590.073C360.857 597.67 362.177 605.529 363.204 613.139C366.437 637.192 360.03 663.599 353.336 686.255C346.916 707.977 334.852 727.936 318.441 743.974C310.673 751.566 301.761 758.292 292.098 763.891L292.098 763.901Z" fill="#E1E1E1"/>
<path d="M300.177 786.52C280.195 798.098 257.804 804.826 235.208 805.827C226.034 806.234 217.322 805.675 209.315 804.167L209.547 803.459C217.495 804.955 226.148 805.509 235.26 805.107C298.262 802.313 354.917 755.142 367.045 695.376C372.438 668.803 373.509 642.639 370.143 619.7C369.229 616.867 368.296 614.01 367.354 611.127C351.723 563.314 334.008 509.122 377.545 462.278C397.683 436.563 425.779 422.779 463.407 420.171C496.267 417.893 530.941 424.16 564.469 430.22C612.163 438.839 653.352 446.284 674.232 425.697C683.197 416.858 687.837 403.411 688.42 384.598C689.053 364.119 684.892 337.761 675.702 304.001C656.737 276.982 646.087 246.293 645.706 217.583C645.49 201.388 648.551 186.107 654.807 172.167C661.67 156.868 672.398 143.202 686.686 131.554L686.72 131.525L686.763 131.5C702.853 123.228 719.712 129.06 736.018 134.699C751.157 139.936 766.811 145.349 782.234 139.945C788.166 137.616 793.828 133.771 799.051 128.525C809.812 117.718 815.844 104.013 816.039 89.941C816.235 75.6457 810.444 62.8016 799.715 53.7753C792.901 48.0428 785.503 42.5384 778.343 37.218C768.379 29.8077 758.069 22.149 749.242 13.7726L749.82 13.2363C758.621 21.5876 768.913 29.2361 778.861 36.6363C786.025 41.9643 793.434 47.4675 800.263 53.2163C811.133 62.3673 817.007 75.3847 816.808 89.8729C816.606 104.141 810.487 118.032 799.582 128.987C794.272 134.319 788.503 138.236 782.444 140.614C766.73 146.12 750.947 140.662 735.681 135.383C718.806 129.545 702.865 124.032 687.115 132.106C629.516 179.105 640.224 252.097 676.395 303.604L676.421 303.649L676.439 303.7C685.655 337.545 689.831 363.986 689.194 384.537C688.607 403.554 683.89 417.171 674.766 426.163C665.057 435.741 650.576 440.009 629.202 439.597C610.172 439.232 587.864 435.199 564.244 430.929C530.761 424.878 496.137 418.618 463.376 420.888C426.013 423.479 398.127 437.151 378.125 462.686C334.873 509.22 352.522 563.208 368.095 610.844C369.042 613.734 369.977 616.605 370.895 619.446L370.909 619.498C374.293 642.517 373.218 668.773 367.807 695.434C361.915 724.461 345.262 751.66 320.919 772.008C314.398 777.458 307.45 782.31 300.183 786.521L300.177 786.52Z" fill="#E1E1E1"/>
</g>
<defs>
<clipPath id="clip0_81_470">
<rect width="893" height="619" fill="white" transform="translate(0 447.722) rotate(-30.0905)"/>
</clipPath>
</defs>
</svg>
