<svg width="847" height="684" viewBox="0 0 847 684" fill="none" xmlns="http://www.w3.org/2000/svg">
<g clip-path="url(#clip0_81_453)">
<path d="M655.247 514.316L655.064 514.344C635.82 517.037 614.043 517.59 595.32 515.856C580.43 514.479 560.822 511.04 551.942 502.48C542.943 492.576 551.791 479.564 560.35 466.979C569.813 453.067 578.747 439.926 565.569 430.708C488.925 401.875 370.129 430.02 286.367 470.705L286.211 470.763C231.136 486.909 188.099 497.316 154.648 502.583C123.694 507.451 101.513 507.813 86.8479 503.682C71.2353 499.283 64.254 489.933 64.8737 474.258C65.4212 460.303 71.9366 442.937 78.8319 424.554C88.6026 398.491 98.7131 371.541 94.94 348.326C90.6328 321.847 68.3104 305.357 26.6994 297.914C-49.1626 279.399 -137.002 307.294 -214.512 331.908C-219.215 333.402 -223.882 334.885 -228.508 336.343L-228.594 336.367C-264.941 344.981 -306.384 351.411 -348.461 354.967C-388.865 358.379 -429.856 359.169 -466.995 357.244L-467.154 357.236L-467.259 357.189C-489.442 346.83 -507.932 333.14 -519.307 318.642C-532.062 302.394 -535.622 285.649 -529.605 270.213L-528.447 270.182C-542.442 306.089 -503.814 339.202 -466.45 356.683C-389.476 360.655 -300.705 352.88 -228.931 335.872C-224.32 334.416 -219.667 332.939 -214.978 331.45C-137.182 306.745 -48.9986 278.743 27.3547 297.383C69.266 304.878 91.7639 321.489 96.0989 348.152C99.8827 371.439 89.7632 398.428 79.975 424.526C66.0508 461.651 54.0295 493.712 87.5963 503.171C102.011 507.232 123.922 506.871 154.537 502.044C187.871 496.798 230.778 486.421 285.709 470.318C329.65 448.984 379.578 432.673 426.324 424.393C452.687 419.721 477.573 417.691 500.275 418.358C525.199 419.09 547.463 423.088 566.466 430.241L566.548 430.285C580.054 439.691 570.597 453.592 561.461 467.032C552.976 479.512 544.194 492.417 553.031 502.139C561.745 510.541 581.098 513.928 595.797 515.288C614.299 517 635.801 516.46 654.819 513.814C680.61 501.367 700.761 485.766 720.246 470.676C732.287 461.356 744.73 451.717 758.347 442.954L759.22 443.225C745.644 451.961 733.213 461.584 721.2 470.889C701.627 486.044 681.383 501.72 655.393 514.242L655.246 514.313L655.247 514.316Z" fill="#E1E1E1"/>
<path d="M658.757 475.356C633.637 479.122 605.205 479.102 585.764 475.131C576.295 473.193 569.35 470.485 565.127 467.08C554.454 458.465 561.531 445.742 568.378 433.441C576.094 419.585 583.378 406.496 566.422 399.483C496.993 370.763 393.433 407.891 301.29 447.995C236.221 476.315 189.166 492.433 156.947 497.263C145.168 499.029 135.383 499.287 127.411 498.082C93.075 492.899 96.3242 461.05 100.094 424.168C102.68 398.854 105.614 370.157 96.3275 346.528C85.6917 319.454 60.6227 303.201 19.7056 296.835C-51.4786 285.763 -120.334 308.88 -186.927 331.234C-198.55 335.136 -210.573 339.174 -222.282 342.907C-262.326 355.674 -310.18 362.011 -347.406 366.107C-382.626 369.983 -418.534 371.719 -451.25 371.135L-451.4 371.133L-451.511 371.094C-469.94 364.414 -486.486 355.596 -499.354 345.591C-513.139 334.874 -522.255 323.042 -525.728 311.381C-527.539 305.301 -527.766 299.14 -526.396 293.069L-525.223 292.991C-526.578 299.011 -526.351 305.126 -524.553 311.166C-517.833 333.727 -489.57 356.481 -450.781 370.562C-418.208 371.139 -382.457 369.405 -347.393 365.546C-310.292 361.465 -262.592 355.148 -222.749 342.446C-211.054 338.719 -199.045 334.686 -187.422 330.784C-120.558 308.337 -51.4168 285.125 20.2897 296.279C61.5291 302.694 86.779 319.053 97.4844 346.292C106.795 369.98 103.858 398.708 101.269 424.055C97.5163 460.749 94.2809 492.439 127.987 497.524C142.182 499.669 162.127 497.052 188.949 489.531C217.986 481.386 254.52 467.671 300.638 447.6C341.201 429.948 389.082 410.335 436.708 398.723C462.152 392.519 485.463 389.192 505.995 388.835C529.383 388.427 550.008 391.847 567.302 399.002C584.69 406.191 577.317 419.433 569.512 433.453C562.723 445.644 555.712 458.252 566.172 466.696C570.301 470.028 577.111 472.683 586.417 474.585C607.623 478.921 639.656 478.5 666.201 473.538C677.659 467.481 688.418 460.366 699.086 451.79C707.669 444.916 715.724 437.665 723.514 430.652C733.722 421.464 744.274 411.965 756.104 403.236L757.038 403.466C745.241 412.162 734.71 421.647 724.522 430.822C716.725 437.843 708.657 445.104 700.054 451.994C689.285 460.648 678.423 467.824 666.838 473.939L666.706 474.007L666.539 474.04C663.986 474.52 661.382 474.956 658.741 475.352L658.757 475.356Z" fill="#E1E1E1"/>
<path d="M660.155 437.213C639.487 440.312 616.986 440.838 599.952 438.361C590.392 436.971 583.119 434.725 578.329 431.688C566.312 424.063 570.935 411.834 575.401 400.006C580.43 386.682 585.187 374.094 567.297 368.259C494.031 344.352 399.308 383.651 316.312 425.249C253.53 456.713 208.458 474.154 177.449 478.803C168.927 480.081 161.467 480.392 154.991 479.763C120.379 476.393 117.771 446.389 114.744 411.645C112.669 387.797 110.319 360.77 96.9117 339.02C81.5525 314.104 54.0317 299.954 12.7733 295.764C-58.7544 288.502 -121.818 313.036 -182.805 336.765C-193.703 341.005 -204.97 345.388 -215.982 349.464C-254.279 363.625 -301.61 371.552 -333.882 376.286C-370.013 381.584 -404.195 384.525 -435.465 385.032L-435.6 385.034L-435.709 385.005C-476.212 374.203 -508.194 354.305 -519.185 333.063C-522.058 327.509 -523.394 321.746 -523.149 315.927L-521.969 315.799C-522.213 321.568 -520.883 327.291 -518.032 332.799C-507.106 353.911 -475.328 373.694 -435.081 384.443C-403.947 383.933 -369.928 381.002 -333.95 375.727C-301.788 371.013 -254.626 363.114 -216.535 349.026C-205.537 344.959 -194.277 340.578 -183.386 336.342C-122.137 312.511 -58.8114 287.872 13.2722 295.19C54.8656 299.414 82.6028 313.656 98.0536 338.733C111.492 360.542 113.847 387.603 115.926 411.478C118.933 446.04 121.533 475.884 155.482 479.19C169.781 480.582 188.842 477.266 213.753 469.053C240.728 460.159 274.034 445.716 315.577 424.895C352.111 406.581 395.478 386.116 440.045 373.16C463.859 366.239 486.096 362.105 506.16 360.879C529.011 359.483 549.86 361.793 568.113 367.748C586.476 373.74 581.667 386.479 576.573 399.967C572.15 411.683 567.577 423.8 579.345 431.266C584.028 434.236 591.159 436.437 600.543 437.8C622.384 440.979 653.337 439.157 677.622 433.27C688.368 427.016 697.913 419.859 706.784 411.402C713.825 404.694 720.322 397.661 726.614 390.859C735.054 381.73 743.785 372.288 753.907 363.524L754.902 363.707C744.813 372.441 736.095 381.867 727.667 390.981C721.369 397.791 714.866 404.831 707.805 411.556C698.841 420.097 689.201 427.321 678.329 433.636L678.219 433.701L678.067 433.738C672.395 435.119 666.367 436.278 660.169 437.207L660.155 437.213Z" fill="#E1E1E1"/>
<path d="M661.657 399.616C645.397 402.054 628.32 402.843 614.146 401.586C604.509 400.729 596.9 398.949 591.544 396.286C578.184 389.656 580.339 377.916 582.431 366.563C584.78 353.77 587.003 341.687 568.171 337.024C491.067 317.93 405.174 359.403 331.318 402.492C260.091 444.051 212.82 462.782 182.568 461.431C147.682 459.876 139.208 431.716 129.386 399.112C122.649 376.736 115.006 351.372 97.4869 331.503C77.4112 308.74 47.4314 296.696 5.83174 294.681C-66.0746 291.197 -123.426 317.165 -178.881 342.28C-188.987 346.856 -199.436 351.588 -209.7 356.005C-241.753 369.8 -281.83 378.788 -320.353 386.443C-353.232 392.976 -387.591 397.289 -419.698 398.913L-419.825 398.918L-419.933 398.899C-461.796 391.428 -497.321 374.51 -512.657 354.747C-516.57 349.706 -519.01 344.335 -519.917 338.787L-518.743 338.611C-517.844 344.108 -515.426 349.436 -511.541 354.437C-496.306 374.075 -461.014 390.888 -419.418 398.333C-387.46 396.714 -353.278 392.417 -320.559 385.915C-282.161 378.283 -242.228 369.33 -210.351 355.614C-200.101 351.202 -189.659 346.474 -179.561 341.9C-123.86 316.675 -66.2626 290.592 6.22535 294.105C48.1726 296.138 78.3893 308.261 98.5923 331.173C116.165 351.097 123.812 376.491 130.553 398.898C140.319 431.326 148.756 459.334 182.947 460.857C197.345 461.5 215.527 457.481 238.534 448.575C263.447 438.929 293.524 423.757 330.493 402.189C363.007 383.218 401.843 361.897 443.351 347.597C465.528 339.958 486.707 335.018 506.296 332.923C528.615 330.534 549.673 331.737 568.894 336.496C588.233 341.286 585.987 353.519 583.61 366.473C581.546 377.718 579.405 389.348 592.481 395.835C597.715 398.432 605.168 400.176 614.623 401.015C637.097 403.012 666.97 399.791 688.998 393.005C698.947 386.591 707.512 379.193 714.445 371.016C720.021 364.44 725.031 357.589 729.879 350.962C736.488 341.925 743.321 332.582 751.674 323.819L752.721 323.948C744.401 332.682 737.581 342.009 730.977 351.031C726.122 357.667 721.106 364.526 715.518 371.118C708.515 379.378 699.857 386.853 689.782 393.335L689.694 393.394L689.565 393.434C681.129 396.044 671.544 398.134 661.665 399.615L661.657 399.616Z" fill="#E1E1E1"/>
<path d="M221.674 442.159C217.64 442.764 213.803 443.077 210.147 443.105C174.993 443.365 160.647 417.053 144.036 386.588C132.637 365.679 119.711 341.985 98.0705 323.991C73.2783 303.382 40.8394 293.443 -1.1021 293.6C-73.435 293.872 -125.154 321.299 -175.164 347.819C-184.41 352.724 -193.976 357.795 -203.417 362.55C-231.956 376.918 -269.986 387.41 -306.837 396.61C-338.361 404.48 -371.942 410.081 -403.945 412.804L-404.049 412.812L-404.148 412.803C-447.296 408.609 -486.371 394.676 -506.128 376.439C-511.063 371.886 -514.613 366.912 -516.683 361.657L-515.526 361.424C-513.469 366.636 -509.948 371.568 -505.064 376.083C-485.437 394.204 -446.63 408.052 -403.768 412.232C-371.929 409.517 -338.531 403.943 -307.167 396.114C-270.446 386.944 -232.553 376.491 -204.173 362.209C-194.738 357.462 -185.187 352.393 -175.948 347.493C-125.709 320.851 -73.7604 293.303 -0.842605 293.03C41.4581 292.868 74.1476 302.878 99.1101 323.622C120.81 341.663 133.749 365.391 145.166 386.325C161.685 416.622 175.957 442.791 210.399 442.532C224.909 442.425 242.213 437.703 263.309 428.105C286.16 417.706 313.015 401.805 345.403 379.492C373.896 359.862 408.209 337.686 446.652 322.042C467.191 313.684 487.305 307.94 506.418 304.977C528.191 301.597 549.473 301.691 569.654 305.25C589.967 308.836 590.285 320.565 590.617 332.981C590.905 343.754 591.203 354.896 605.603 360.409C611.387 362.623 619.154 363.911 628.689 364.239C651.778 365.029 680.564 360.413 700.368 352.748C709.642 346.079 716.956 338.642 722.092 330.636C726.232 324.188 729.783 317.511 733.216 311.05C737.966 302.114 742.873 292.878 749.419 284.116L750.517 284.189C743.997 292.919 739.095 302.143 734.351 311.061C730.911 317.53 727.361 324.215 723.208 330.679C718.01 338.77 710.611 346.294 701.213 353.034L701.146 353.086L701.047 353.125C680.97 360.915 651.737 365.612 628.325 364.811C618.594 364.477 610.657 363.159 604.738 360.891C590.027 355.257 589.728 344.007 589.431 333.124C589.1 320.865 588.789 309.282 569.023 305.796C488.081 291.508 411.017 335.158 346.302 379.741C291.369 417.585 251.26 437.723 221.659 442.161L221.674 442.159Z" fill="#E1E1E1"/>
<path d="M244.842 424.026C242.422 424.389 240.052 424.64 237.733 424.774C202.319 426.852 182.1 402.388 158.693 374.06C142.626 354.623 124.422 332.59 98.6615 316.479C69.1528 298.023 34.2543 290.185 -8.02848 292.517C-80.865 296.534 -127.014 325.449 -171.648 353.413C-179.97 358.626 -188.574 364.017 -197.134 369.095C-223.654 384.827 -260.683 396.793 -293.315 406.775C-321.981 415.545 -355.324 425.04 -388.258 426.701C-408.823 427.737 -430.431 425.362 -450.744 419.827C-469.461 414.727 -486.35 407.222 -499.584 398.128C-505.536 394.042 -510.189 389.464 -513.435 384.525L-512.301 384.236C-509.084 389.134 -504.467 393.672 -498.572 397.725C-476.3 413.027 -435.582 428.524 -388.097 426.128C-355.445 424.482 -322.276 415.034 -293.752 406.307C-261.235 396.359 -224.335 384.437 -197.973 368.798C-189.427 363.73 -180.83 358.343 -172.515 353.134C-127.682 325.042 -81.3204 295.998 -7.88159 291.947C34.7657 289.595 69.9416 297.482 99.6494 316.065C125.484 332.221 143.714 354.282 159.801 373.747C183.08 401.917 203.18 426.244 237.88 424.207C252.495 423.347 268.923 417.929 288.115 407.638C308.903 396.489 332.529 379.856 360.35 356.795C384.823 336.507 414.606 313.477 449.982 296.49C468.891 287.412 487.925 280.866 506.57 277.029C527.812 272.657 549.302 271.643 570.436 274.005C591.723 276.386 594.598 287.606 597.647 299.488C600.287 309.794 603.024 320.451 618.74 324.984C625.057 326.808 633.146 327.642 642.778 327.463C665.774 327.037 696.027 322.246 711.775 312.493C722.35 305.947 726.471 297.919 729.784 290.257C732.518 283.932 734.631 277.418 736.678 271.116C739.54 262.291 742.499 253.166 747.216 244.416L748.351 244.431C743.651 253.15 740.698 262.261 737.841 271.07C735.795 277.379 733.676 283.902 730.937 290.244C727.591 297.988 723.416 306.105 712.636 312.78C696.571 322.724 665.853 327.612 642.542 328.04C632.708 328.221 624.444 327.368 617.977 325.501C601.909 320.863 599.148 310.101 596.477 299.692C593.467 287.964 590.628 276.885 569.929 274.57C485.147 265.089 416.899 310.914 361.332 356.991C311.781 398.077 274.466 419.592 244.851 424.032L244.842 424.026Z" fill="#E1E1E1"/>
<path d="M268.422 406.034C267.381 406.191 266.351 406.324 265.325 406.436C229.651 410.331 203.56 387.715 173.357 361.527C152.628 343.558 129.139 323.19 99.2589 308.958C65.0336 292.656 27.6755 286.92 -14.9564 291.425C-88.3792 299.184 -129.026 329.635 -168.331 359.082C-175.666 364.577 -183.244 370.255 -190.852 375.629C-214.157 392.099 -248.979 405.582 -279.787 416.926C-306.785 426.867 -337.936 433.375 -368.061 439.667L-372.33 440.558C-392.347 444.747 -414.365 444.394 -437.774 439.512C-461.841 434.494 -481.102 426.02 -493.028 419.798C-500.001 416.158 -505.764 411.977 -510.174 407.373L-509.085 407.035C-504.718 411.604 -498.997 415.749 -492.09 419.356C-477.436 427.008 -425.499 451.108 -372.566 440.035L-368.297 439.143C-338.252 432.867 -307.189 426.379 -280.346 416.496C-249.638 405.188 -214.944 391.752 -191.774 375.383C-184.179 370.017 -176.601 364.343 -169.28 358.854C-129.792 329.275 -88.964 298.684 -14.9356 290.863C28.0577 286.318 65.7136 292.089 100.173 308.5C130.134 322.772 153.657 343.166 174.412 361.16C204.45 387.198 230.387 409.689 265.338 405.871C280.058 404.265 295.615 398.142 312.903 387.155C331.629 375.254 352.033 357.892 375.273 334.082C395.717 313.136 420.978 289.25 453.296 270.92C470.568 261.126 488.535 253.772 506.698 249.068C527.401 243.707 549.1 241.579 571.194 242.745C593.448 243.919 598.886 254.633 604.643 265.973C609.635 275.81 614.805 285.984 631.851 289.543C638.679 290.968 647.09 291.345 656.843 290.673C684.089 288.785 710.739 281.37 723.158 272.217C733.105 264.887 736.02 256.419 737.451 249.86C738.807 243.644 739.509 237.274 740.183 231.119C741.137 222.42 742.127 213.422 744.988 204.696L746.152 204.651C743.301 213.347 742.315 222.327 741.36 231.012C740.687 237.178 739.985 243.551 738.625 249.785C737.175 256.42 734.215 264.99 724.093 272.45C713.984 279.902 694.669 286.221 673.216 289.437C667.818 290.247 662.278 290.861 656.719 291.243C646.766 291.932 638.166 291.544 631.175 290.084C613.742 286.448 608.527 276.172 603.483 266.234C597.799 255.037 592.427 244.46 570.786 243.32C482.15 238.644 422.732 286.646 376.298 334.218C332.998 378.581 298.594 401.5 268.399 406.031L268.422 406.034Z" fill="#E1E1E1"/>
<path d="M293.851 386.574C257.832 391.974 225.974 370.901 189.112 346.515C163.464 329.552 134.401 310.32 100.236 298.17C61.1589 284.269 21.2241 281.703 -21.8325 290.328C-97.7751 305.539 -133.905 337.508 -168.85 368.422C-173.961 372.947 -179.252 377.625 -184.577 382.169C-204.854 399.484 -237.378 414.432 -266.273 427.086C-294.21 439.32 -327.602 447.782 -356.592 454.448C-377.266 459.203 -400.316 460.07 -425.099 457.029C-446.376 454.416 -467.609 449.04 -486.484 441.487C-494.502 438.28 -501.376 434.496 -506.918 430.24L-505.881 429.854C-500.382 434.074 -493.565 437.825 -485.619 441.008C-452.982 454.068 -402.018 464.322 -356.863 453.94C-327.982 447.297 -294.713 438.868 -266.93 426.702C-238.134 414.091 -205.729 399.199 -185.565 381.985C-180.246 377.446 -174.963 372.769 -169.851 368.25C-152.352 352.77 -134.257 336.76 -111.318 323.001C-85.5376 307.534 -56.3289 296.677 -22.0309 289.806C21.4334 281.099 61.7002 283.677 101.07 297.682C135.331 309.87 164.442 329.123 190.124 346.112C226.969 370.486 258.802 391.539 294.312 385.949C308.987 383.641 323.493 376.956 338.658 365.518C355.104 353.113 371.97 335.408 390.222 311.396C406.646 289.792 427.376 265.051 456.628 245.381C472.255 234.87 489.158 226.715 506.845 221.142C527.003 214.791 548.918 211.554 571.972 211.521C595.184 211.486 603.179 221.694 611.645 232.499C618.99 241.872 626.593 251.566 644.977 254.141C652.292 255.165 661.025 255.092 670.928 253.918C697.8 250.738 723.363 241.924 734.567 231.975C741.695 225.648 745.159 218.292 745.152 209.492C745.149 203.365 744.446 197.129 743.767 191.1C742.799 182.542 741.802 173.692 742.787 165.006L743.964 164.9C742.974 173.555 743.976 182.39 744.942 190.934C745.622 196.971 746.333 203.212 746.332 209.354C746.332 218.259 742.815 225.714 735.568 232.15C729.804 237.266 720.495 242.099 708.635 246.13C697.162 250.031 684.118 252.915 670.929 254.477C660.827 255.674 651.907 255.746 644.408 254.698C625.61 252.066 617.941 242.277 610.522 232.807C602.159 222.141 594.266 212.064 571.684 212.096C479.202 212.227 428.6 262.408 391.306 311.474C373.01 335.543 356.098 353.293 339.592 365.745C324.211 377.348 309.428 384.134 294.402 386.498C294.219 386.526 294.028 386.554 293.845 386.582L293.851 386.574Z" fill="#E1E1E1"/>
<path d="M316.141 370.536C281.267 375.765 244.744 357.491 202.701 336.463C172.648 321.433 138.582 304.394 100.461 293.919C56.7946 281.918 14.5032 280.391 -28.8192 289.245C-103.677 304.541 -133.359 338.198 -162.067 370.748C-167.31 376.694 -172.733 382.842 -178.303 388.708C-194.844 406.127 -223.859 422.327 -252.752 437.241C-281.087 451.869 -310.744 462.335 -340.889 468.349C-363.606 472.884 -388.558 474.769 -413.029 473.809C-437.153 472.863 -460.285 469.183 -479.92 463.166C-489.013 460.382 -496.991 456.991 -503.649 453.098L-502.67 452.672C-496.069 456.535 -488.157 459.894 -479.134 462.657C-439.258 474.877 -386.363 476.854 -341.088 467.824C-311.569 461.934 -281.286 451.242 -253.5 436.902C-224.704 422.038 -195.793 405.898 -179.342 388.577C-173.779 382.719 -168.363 376.576 -163.12 370.633C-134.282 337.942 -104.464 304.139 -29.0107 288.718C14.6753 279.789 57.2752 281.322 101.231 293.399C139.454 303.903 173.56 320.961 203.653 336.01C247.204 357.793 284.82 376.609 320.295 369.229C335.232 366.123 349.049 358.594 362.537 346.217C377.144 332.809 391.098 313.989 405.19 288.683C417.585 266.421 433.793 240.829 459.979 219.815C473.969 208.589 489.799 199.627 507.011 193.186C526.63 185.846 548.746 181.5 572.761 180.268C596.925 179.028 607.483 188.726 618.658 198.988C628.355 207.9 638.39 217.114 658.126 218.704C665.907 219.329 674.969 218.802 685.038 217.132C711.965 212.669 735.891 202.688 746.002 191.701C752.283 184.876 754.658 177.058 752.879 169.097C751.522 163.047 749.42 156.927 747.378 151.011C744.484 142.609 741.494 133.922 740.613 125.292L741.788 125.129C742.665 133.732 745.653 142.403 748.538 150.791C750.58 156.714 752.684 162.841 754.044 168.908C755.845 176.974 753.434 184.899 747.056 191.83C736.771 203.007 712.473 213.155 685.157 217.68C674.876 219.382 665.636 219.922 657.673 219.278C637.512 217.654 627.38 208.35 617.587 199.351C606.551 189.215 596.124 179.64 572.6 180.844C476.257 185.782 434.478 238.141 406.318 288.709C379.157 337.479 351.889 363.234 320.509 369.759C319.062 370.06 317.608 370.32 316.156 370.538L316.141 370.536Z" fill="#E1E1E1"/>
<path d="M-354.603 488.02C-395.132 494.097 -437.81 493.089 -473.364 484.836C-483.565 482.466 -492.66 479.477 -500.38 475.949L-499.475 475.488C-491.811 478.989 -482.794 481.956 -472.671 484.305C-428.625 494.531 -373.584 493.567 -325.423 481.724C-294.461 474.109 -264.954 462.139 -240.092 447.103C-213.428 430.979 -186.865 413.528 -173.141 395.173C-168.619 389.125 -164.295 382.803 -160.112 376.691C-136.631 342.385 -112.35 306.914 -36.0769 287.653C7.94825 276.535 53.0271 275.947 101.727 285.858C144.077 294.476 183.475 309.87 218.237 323.447C268.549 343.106 312.002 360.082 347.741 350.919C362.791 347.063 375.745 338.829 387.328 325.755C399.874 311.598 410.598 292.047 420.123 265.989C425.588 251.024 434.53 228.787 449.01 208.523C464.983 186.162 485.028 169.909 508.584 160.211C527.711 152.337 549.6 148.577 573.65 149.034C596.618 149.469 610.065 157.983 623.058 166.218C635.827 174.303 649.027 182.665 671.221 183.299C679.446 183.534 688.822 182.551 699.1 180.377C726.146 174.656 748.482 163.573 757.388 151.452C762.832 144.047 763.926 136.187 760.557 128.723C757.852 122.732 754.333 116.716 750.933 110.895C746.122 102.665 741.149 94.1564 738.396 85.594L739.563 85.3771C742.305 93.9098 747.275 102.405 752.077 110.622C755.485 116.445 759.005 122.471 761.713 128.476C765.134 136.037 764.019 144.009 758.494 151.524C749.444 163.837 726.774 175.093 699.335 180.898C688.869 183.113 679.293 184.116 670.88 183.875C648.271 183.229 634.955 174.793 622.071 166.635C609.187 158.478 595.871 150.042 573.332 149.613C549.612 149.162 528.045 152.864 509.207 160.617C485.878 170.222 465.995 186.363 450.115 208.591C435.674 228.812 426.742 251.015 421.28 265.958C402.936 316.166 379.673 343.323 348.072 351.425C345.422 352.106 342.728 352.646 339.999 353.055C305.235 358.267 264.268 342.263 217.373 323.936C182.659 310.373 143.308 295 101.067 286.405C52.6763 276.558 7.91748 277.13 -35.7535 288.16C-111.441 307.274 -135.617 342.596 -159 376.755C-163.19 382.872 -167.52 389.198 -172.049 395.257C-185.847 413.718 -212.505 431.231 -239.251 447.406C-264.265 462.532 -293.956 474.575 -325.12 482.241C-334.725 484.603 -344.604 486.535 -354.608 488.035L-354.603 488.02Z" fill="#E1E1E1"/>
<path d="M-357.325 506.525C-367.615 508.068 -378.011 509.207 -388.351 509.912C-415.794 511.787 -442.923 510.61 -466.808 506.505C-478.161 504.557 -488.351 501.962 -497.112 498.797L-496.279 498.305C-487.589 501.446 -477.469 504.02 -466.201 505.953C-418.623 514.126 -360.139 510.266 -309.751 495.623C-277.737 486.32 -249.007 473.069 -226.662 457.299C-203.293 440.806 -177.914 421.308 -166.92 401.758C-163.426 395.547 -160.174 389.082 -157.025 382.824C-138.942 346.878 -120.247 309.708 -43.1154 286.574C1.25635 273.266 48.8 270.561 102.245 278.304C148.721 285.038 193.411 298.762 232.842 310.871C289.921 328.4 339.211 343.541 375.222 332.594C390.392 327.983 402.468 319.049 412.154 305.274C422.637 290.364 430.14 270.083 435.09 243.275C437.934 227.882 443.018 204.967 454.346 183.788C466.845 160.421 484.84 143.043 507.839 132.133C526.511 123.275 548.922 118.445 574.439 117.781C598.798 117.147 614.678 125.128 630.039 132.845C645.132 140.434 660.744 148.281 684.357 147.868C692.996 147.719 702.702 146.278 713.203 143.592C740.047 136.724 761.364 124.298 768.822 111.172C773.314 103.267 773.127 95.3641 768.275 88.3147C764.191 82.331 759.217 76.3688 754.409 70.6056C747.726 62.594 740.807 54.3102 736.219 45.8657L737.364 45.5997C741.941 54.018 748.842 62.2868 755.516 70.2859C760.333 76.0549 765.314 82.0228 769.401 88.0201C774.319 95.1644 774.508 103.178 769.95 111.191C762.378 124.512 740.759 137.12 713.525 144.089C702.836 146.823 692.939 148.29 684.106 148.444C660.067 148.861 644.324 140.947 629.094 133.294C613.87 125.641 598.128 117.73 574.21 118.353C549.036 119.007 526.945 123.766 508.546 132.495C485.757 143.304 467.902 160.567 455.48 183.8C444.175 204.933 439.101 227.812 436.261 243.184C426.734 294.829 407.476 323.388 375.652 333.061C338.973 344.209 289.426 328.995 232.056 311.376C192.672 299.282 148.037 285.574 101.675 278.858C48.5603 271.163 1.33505 273.841 -42.6851 287.044C-119.25 310.01 -137.869 347.028 -155.877 382.827C-159.026 389.084 -162.285 395.557 -165.777 401.776C-176.832 421.425 -202.29 440.991 -225.734 457.537C-248.215 473.401 -277.12 486.734 -309.335 496.095C-324.584 500.527 -340.81 504.042 -357.319 506.517L-357.325 506.525Z" fill="#E1E1E1"/>
<path d="M-360.979 526.019C-395.12 531.138 -429.384 531.939 -460.259 528.176C-472.794 526.649 -484.095 524.452 -493.844 521.648L-493.081 521.135C-483.402 523.918 -472.179 526.099 -459.728 527.618C-373.64 538.108 -267.668 512.267 -213.223 467.505C-189.016 447.603 -170.851 427.153 -160.689 408.356C-160.099 405.934 -159.521 403.489 -158.938 401.023C-149.279 360.107 -138.332 313.733 -50.1221 285.507C-6.7317 269.254 39.6768 264.03 91.6936 269.552C137.119 274.376 179.509 286.313 220.497 297.856C278.805 314.276 329.158 328.457 370.26 316.404C387.91 311.229 402.716 301.543 415.526 286.801C429.468 270.754 440.755 249.095 450.045 220.578C441.946 195.415 447.319 169.029 465.167 146.276C475.234 133.44 489.1 121.988 506.386 112.238C525.352 101.537 548.445 92.9043 575.011 86.584L575.076 86.5673L575.15 86.5563C601.968 83.2658 620.798 91.2694 639.012 99.0092C655.92 106.197 673.404 113.627 697.498 112.467C706.925 111.823 716.959 109.927 727.302 106.835C748.612 100.468 765.447 90.8593 774.705 79.7835C784.109 68.532 784.573 57.2199 775.989 47.9282C770.537 42.0273 764.157 36.1887 757.979 30.5434C749.384 22.6822 740.486 14.5554 734.031 6.16026L735.147 5.85317C741.584 14.2231 750.465 22.3385 759.043 30.1882C765.222 35.8403 771.617 41.6802 777.079 47.5971C785.772 57.0157 785.309 68.4814 775.778 79.8847C766.385 91.1135 749.315 100.852 727.718 107.308C717.203 110.449 706.978 112.38 697.351 113.038C672.803 114.22 655.175 106.728 638.122 99.4814C619.276 91.4697 601.471 83.9027 575.232 87.1064C468.108 112.621 435.763 172.432 451.226 220.404L451.232 220.445L451.224 220.489C441.914 249.079 430.593 270.805 416.6 286.909C403.656 301.811 388.635 311.616 370.677 316.88C351.562 322.488 329.455 322.941 301.119 318.309C275.889 314.185 248.618 306.504 219.742 298.371C178.809 286.844 136.481 274.922 91.1928 270.113C39.5419 264.63 -6.51363 269.809 -49.6062 285.947C-137.237 313.985 -148.143 360.185 -157.765 400.948C-158.346 403.422 -158.93 405.878 -159.519 408.307L-159.534 408.351C-169.725 427.214 -187.953 447.737 -212.241 467.704C-238.686 489.444 -278.36 507.571 -323.946 518.738C-336.156 521.728 -348.555 524.16 -360.972 526.021L-360.979 526.019Z" fill="#E1E1E1"/>
</g>
<defs>
<clipPath id="clip0_81_453">
<rect width="1334.92" height="491" fill="white" transform="translate(-546 197.924) rotate(-8.52651)"/>
</clipPath>
</defs>
</svg>
